<svg width="399" height="78" viewBox="0 0 399 78" fill="none" xmlns="http://www.w3.org/2000/svg">
<path d="M51.8404 12.5718C53.7603 13.5882 54.9744 15.0846 55.4826 17.061C54.3532 23.3855 53.3368 29.6817 52.4333 35.9496C51.5298 42.1612 50.6546 47.3845 49.8076 51.6196C48.9605 55.7982 48.3676 58.9322 48.0288 61.0215C47.7465 63.1109 47.4077 65.2002 47.0124 67.2895L46.5042 69.0683C46.3912 69.6894 46.2783 70.2541 46.1654 70.7623C46.0524 71.327 45.9395 71.9199 45.8265 72.5411C44.2454 74.3481 42.0996 75.2515 39.3892 75.2515C36.5093 75.2515 34.2223 74.5175 32.5283 73.0493C31.5118 72.2587 31.3424 70.5929 32.0201 68.0518C32.3024 67.0354 32.4718 65.7366 32.5283 64.1555C32.6412 62.518 32.7541 61.1627 32.8671 60.0898V59.9204C31.173 60.5416 29.6484 61.3604 28.2932 62.3768C26.9379 63.3367 26.0909 63.9579 25.7521 64.2402C25.4133 64.4661 24.9615 64.6638 24.3968 64.8332C23.8322 64.9461 23.3239 65.0308 22.8722 65.0873C21.7993 65.1437 21.0652 65.3131 20.6699 65.5955C17.3948 71.4682 14.4584 74.7433 11.8609 75.421C10.2233 75.9292 8.58573 76.0421 6.94815 75.7598C5.31058 75.5339 4.01181 74.5739 3.05185 72.8799C1.24486 71.1858 1.69661 66.5554 4.40708 58.9887C5.87526 54.9794 7.96458 50.1796 10.6751 44.5893C13.442 38.9425 16.096 34.0297 18.6371 29.8511C24.1145 20.8726 30.1284 13.3059 36.6787 7.15084C37.7516 6.6991 38.9092 6.19088 40.1515 5.6262C41.3938 5.00505 42.6079 4.66624 43.7937 4.60978C45.036 4.5533 46.3065 4.69447 47.6053 5.03329C48.9041 5.3721 50.0052 5.88031 50.9087 6.55793C52.998 8.13904 53.3086 10.1437 51.8404 12.5718ZM33.7141 34.8485C32.5283 38.2366 31.3424 41.3706 30.1566 44.2505C28.9708 47.0739 27.9543 49.5585 27.1073 51.7043L33.7988 51.4502C34.2506 47.8362 34.7588 44.2505 35.3234 40.693C35.8881 37.1355 36.4246 33.578 36.9328 30.0205L33.7141 34.8485ZM31.4271 51.789C32.2177 51.789 33.0082 51.7325 33.7988 51.6196V51.5349C33.0647 51.5914 32.3871 51.6478 31.7659 51.7043C31.1448 51.7608 31.0319 51.789 31.4271 51.789ZM75.7649 6.64263L75.8496 6.30382L76.6119 5.5415C77.233 4.07332 77.9106 3.19807 78.6447 2.91572C79.04 2.80279 79.5482 2.66162 80.1694 2.49221C80.7905 2.32281 81.6093 1.8993 82.6257 1.22168C83.021 0.431124 83.8398 0.0923135 85.0821 0.205249C86.3244 0.261719 87.5385 0.656997 88.7243 1.39108C89.9666 2.0687 90.9548 3.02866 91.6889 4.27097C92.4795 5.51327 92.6771 6.81204 92.2818 8.16727C91.8865 9.46604 91.5477 10.4542 91.2654 11.1319C91.0395 11.753 90.7854 12.3459 90.5031 12.9106C90.2772 13.4753 89.9666 14.1247 89.5713 14.8588C89.2325 15.5364 88.7808 16.4681 88.2161 17.6539L85.4209 23.4984C85.1386 24.2325 84.8845 24.656 84.6586 24.7689C84.4892 24.8819 84.3198 25.0795 84.1504 25.3619C84.6586 25.2489 85.0821 25.1642 85.4209 25.1077C85.7597 25.0513 86.0985 24.9948 86.4374 24.9383C87.2279 24.8254 88.1314 24.7125 89.1478 24.5995C89.769 24.7125 90.3054 24.7689 90.7572 24.7689H91.943C92.6206 24.7689 93.4394 24.9666 94.3994 25.3619C95.3593 25.7007 95.9805 26.3218 96.2628 27.2253C96.5452 28.1288 96.5734 29.0605 96.3475 30.0205C96.1217 30.924 95.6699 31.771 94.9923 32.5616C94.3147 33.3521 93.4394 33.7756 92.3665 33.8321C87.4538 35.1873 83.9527 35.9214 81.8634 36.0344L81.3552 36.6273V36.712C80.7905 38.0672 80.1694 39.7895 79.4918 41.8788C78.8706 43.9117 78.1648 46.1422 77.3742 48.5703C76.6401 50.942 75.8778 53.4266 75.0872 56.0241C74.2967 58.5652 73.4779 61.0215 72.6309 63.3932C69.9204 71.3552 67.944 75.6751 66.7017 76.3527C66.25 76.5786 65.77 76.7197 65.2618 76.7762C64.81 76.8891 64.5559 76.9738 64.4994 77.0303C62.5231 76.9174 60.8855 76.5221 59.5867 75.8445C58.2879 75.1668 57.4127 74.5175 56.9609 73.8963C56.5092 73.2752 56.3962 72.5693 56.6221 71.7787C57.695 61.9533 59.8408 51.1961 63.0595 39.5071C61.9301 39.5071 61.1396 39.6201 60.6878 39.846C59.8408 40.2977 58.8244 40.5518 57.6385 40.6083H57.5538C56.6504 40.5518 55.8316 40.1283 55.0975 39.3377C54.3634 38.5472 53.9116 37.6437 53.7422 36.6273C53.5728 35.6108 53.7422 34.5662 54.2505 33.4933C54.7587 32.4204 55.7751 31.5734 57.2997 30.9522C59.1067 30.444 60.4337 30.0205 61.2807 29.6817C62.9183 29.0041 64.2736 28.5241 65.3465 28.2417C66.4758 27.9594 67.097 27.79 67.2099 27.7335C67.3793 27.6206 67.4923 27.5359 67.5487 27.4794C67.7181 27.3665 68.1416 27.31 68.8193 27.31C69.1581 25.6724 69.4969 24.0066 69.8357 22.3126C70.1745 20.6185 70.598 18.8962 71.1062 17.1457C72.2356 13.08 73.7885 9.57898 75.7649 6.64263ZM112.657 6.64263L112.741 6.30382L113.504 5.5415C114.125 4.07332 114.802 3.19807 115.537 2.91572C115.932 2.80279 116.44 2.66162 117.061 2.49221C117.682 2.32281 118.501 1.8993 119.518 1.22168C119.913 0.431124 120.732 0.0923135 121.974 0.205249C123.216 0.261719 124.43 0.656997 125.616 1.39108C126.858 2.0687 127.847 3.02866 128.581 4.27097C129.371 5.51327 129.569 6.81204 129.174 8.16727C128.778 9.46604 128.44 10.4542 128.157 11.1319C127.931 11.753 127.677 12.3459 127.395 12.9106C127.169 13.4753 126.858 14.1247 126.463 14.8588C126.124 15.5364 125.673 16.4681 125.108 17.6539L122.313 23.4984C122.03 24.2325 121.776 24.656 121.55 24.7689C121.381 24.8819 121.212 25.0795 121.042 25.3619C121.55 25.2489 121.974 25.1642 122.313 25.1077C122.652 25.0513 122.99 24.9948 123.329 24.9383C124.12 24.8254 125.023 24.7125 126.04 24.5995C126.661 24.7125 127.197 24.7689 127.649 24.7689H128.835C129.512 24.7689 130.331 24.9666 131.291 25.3619C132.251 25.7007 132.872 26.3218 133.155 27.2253C133.437 28.1288 133.465 29.0605 133.239 30.0205C133.014 30.924 132.562 31.771 131.884 32.5616C131.207 33.3521 130.331 33.7756 129.258 33.8321C124.346 35.1873 120.845 35.9214 118.755 36.0344L118.247 36.6273V36.712C117.682 38.0672 117.061 39.7895 116.384 41.8788C115.762 43.9117 115.057 46.1422 114.266 48.5703C113.532 50.942 112.77 53.4266 111.979 56.0241C111.189 58.5652 110.37 61.0215 109.523 63.3932C106.812 71.3552 104.836 75.6751 103.594 76.3527C103.142 76.5786 102.662 76.7197 102.154 76.7762C101.702 76.8891 101.448 76.9738 101.391 77.0303C99.4149 76.9174 97.7773 76.5221 96.4786 75.8445C95.1798 75.1668 94.3045 74.5175 93.8528 73.8963C93.401 73.2752 93.2881 72.5693 93.514 71.7787C94.5869 61.9533 96.7327 51.1961 99.9513 39.5071C98.822 39.5071 98.0314 39.6201 97.5797 39.846C96.7327 40.2977 95.7162 40.5518 94.5304 40.6083H94.4457C93.5422 40.5518 92.7234 40.1283 91.9893 39.3377C91.2552 38.5472 90.8035 37.6437 90.6341 36.6273C90.4647 35.6108 90.6341 34.5662 91.1423 33.4933C91.6505 32.4204 92.6669 31.5734 94.1916 30.9522C95.9986 30.444 97.3256 30.0205 98.1726 29.6817C99.8102 29.0041 101.165 28.5241 102.238 28.2417C103.368 27.9594 103.989 27.79 104.102 27.7335C104.271 27.6206 104.384 27.5359 104.441 27.4794C104.61 27.3665 105.033 27.31 105.711 27.31C106.05 25.6724 106.389 24.0066 106.728 22.3126C107.066 20.6185 107.49 18.8962 107.998 17.1457C109.127 13.08 110.68 9.57898 112.657 6.64263ZM156.155 57.4641C155.082 57.9723 154.038 58.3675 153.021 58.6499C152.005 58.9322 150.819 59.2146 149.464 59.4969C145.906 60.231 143.337 60.6545 141.756 60.7674C141.925 61.3321 142.772 62.0097 144.297 62.8003C145.313 62.9697 146.415 62.8285 147.6 62.3768C148.843 61.8686 150.113 61.4168 151.412 61.0215C152.767 60.5698 154.066 60.3157 155.308 60.2592C156.607 60.2028 157.821 60.6827 158.951 61.6992C159.402 62.7156 159.769 63.3085 160.052 63.4779C160.334 63.6473 160.588 63.732 160.814 63.732C161.04 63.732 161.294 63.8167 161.576 63.9861C161.859 64.1555 162.254 64.8049 162.762 65.9343C163.327 67.0637 163.186 68.1365 162.339 69.153C161.548 70.1694 160.306 71.0447 158.612 71.7787C156.918 72.5128 154.941 73.1058 152.683 73.5575C150.424 74.0092 148.165 74.3198 145.906 74.4892C140.824 74.8845 136.956 74.4892 134.302 73.3034C130.462 72.0046 127.978 69.4353 126.848 65.5955C125.38 60.5133 126.199 54.5842 129.305 47.808C130.716 44.6458 132.947 41.2577 135.996 37.6437C138.65 34.4815 141.615 32.1945 144.89 30.7828C148.673 29.1452 152.626 28.3829 156.748 28.4958C161.153 28.6088 164.202 30.5287 165.896 34.2556C166.743 36.232 166.913 38.9989 166.404 42.5564C165.501 47.1868 164.315 50.462 162.847 52.3819C161.379 54.2454 159.148 55.9394 156.155 57.4641ZM151.243 44.0811C148.25 43.4599 145.906 45.154 144.212 49.1632C143.704 50.2361 143.309 51.3655 143.026 52.5513C144.946 52.7772 146.979 51.7043 149.125 49.3326C149.916 48.3727 150.509 47.4127 150.904 46.4527C151.299 45.4363 151.412 44.6458 151.243 44.0811ZM181.602 33.3239C185.385 31.7992 187.926 31.771 189.225 33.2392C189.903 34.0297 190.241 35.1309 190.241 36.5426V36.9661C192.331 34.5379 195.973 32.5051 201.168 30.8675C206.645 29.1735 211.163 28.6935 214.72 29.4276C219.351 30.3875 221.948 33.4086 222.513 38.4907C222.965 42.7823 221.977 48.2315 219.548 54.8383C218.758 56.5323 218.137 57.9158 217.685 58.9887C217.29 60.0051 216.923 60.9368 216.584 61.7839C215.85 63.365 214.692 65.2567 213.111 67.4589C212.208 69.153 210.796 70.4517 208.876 71.3552C207.012 72.2587 205.149 72.7669 203.286 72.8799C201.479 73.0493 199.982 72.7669 198.796 72.0329C197.611 71.3552 197.272 70.2541 197.78 68.7295C199.079 65.2284 200.152 62.038 200.999 59.1581C201.846 56.2782 202.721 53.8218 203.624 51.789C204.471 48.9091 204.584 47.1021 203.963 46.368C203.455 45.8034 202.58 45.8881 201.337 46.6221C200.265 47.2998 199.502 48.0903 199.05 48.9938C198.034 49.7279 196.114 52.6642 193.291 57.8029C192.5 59.2146 191.71 60.6263 190.919 62.038C190.185 63.3932 189.479 64.6638 188.801 65.8496C188.18 67.0354 187.616 68.0236 187.107 68.8142C186.656 69.6047 186.232 70.1129 185.837 70.3388C185.498 70.6212 185.188 70.7906 184.905 70.847C184.679 70.96 184.482 71.0729 184.312 71.1858C184.143 71.2988 184.002 71.6658 183.889 72.287C183.663 73.5857 182.308 74.5457 179.823 75.1668C175.814 76.1833 172.2 76.0139 168.981 74.6586C167.908 74.2069 167.061 73.5857 166.44 72.7952C165.141 70.1976 167.372 61.3604 173.132 46.2833C175.164 40.9753 176.491 37.8131 177.113 36.7967C178.524 34.6509 179.428 33.4368 179.823 33.1545C180.275 32.8721 180.868 32.9286 181.602 33.3239ZM239.906 35.3567C241.995 33.945 244.395 33.5215 247.106 34.0862C249.816 34.7073 251.341 35.8932 251.68 37.6437C252.132 36.5708 252.47 35.4979 252.696 34.425C255.237 22.962 258.032 14.2094 261.082 8.16727C262.042 6.30382 263.03 5.00505 264.046 4.27097C266.7 2.57692 269.495 2.35104 272.432 3.59334C273.618 4.10156 274.549 4.80741 275.227 5.7109C275.905 6.55793 276.159 7.34849 275.989 8.08257C275.876 8.81666 275.933 9.40957 276.159 9.86132C276.441 10.3131 276.752 10.7648 277.09 11.2166C277.994 12.2895 278.361 13.2212 278.192 14.0117C277.062 18.4727 275.538 23.1031 273.618 27.9029C271.754 32.6463 269.834 37.3896 267.858 42.1329C265.882 46.8763 264.075 51.5631 262.437 56.1935C260.856 60.7674 259.811 65.1155 259.303 69.2377C259.303 70.3106 258.851 71.2705 257.948 72.1176C257.044 73.0211 255.915 73.7269 254.56 74.2351C251.341 75.3645 248.348 75.1386 245.581 73.5575V73.0493C245.017 72.8799 244.593 72.7669 244.311 72.7105C244.085 72.654 243.915 72.5411 243.802 72.3717C243.633 72.0893 243.492 71.2141 243.379 69.7459C242.25 71.4964 241.148 72.5693 240.076 72.9646C239.003 73.3599 237.902 73.5575 236.772 73.5575C231.295 73.5575 227.398 72.5693 225.083 70.5929C223.05 68.8989 222.09 66.1319 222.203 62.2921C222.316 58.0005 223.897 53.2007 226.947 47.8927C230.448 41.8506 234.768 37.6719 239.906 35.3567ZM239.821 63.1391C241.628 63.7603 242.871 63.3367 243.548 61.8686C243.944 61.1345 244.311 60.1745 244.649 58.9887C245.045 57.8029 245.525 56.4194 246.089 54.8383L246.428 53.1442C245.073 52.3537 243.831 52.2407 242.701 52.8054C241.628 53.3701 240.753 54.2454 240.076 55.4312C239.398 56.617 239.003 57.944 238.89 59.4122C238.777 60.8804 239.087 62.1227 239.821 63.1391ZM298.181 57.4641C297.108 57.9723 296.063 58.3675 295.047 58.6499C294.03 58.9322 292.844 59.2146 291.489 59.4969C287.932 60.231 285.362 60.6545 283.781 60.7674C283.951 61.3321 284.798 62.0097 286.322 62.8003C287.339 62.9697 288.44 62.8285 289.626 62.3768C290.868 61.8686 292.139 61.4168 293.437 61.0215C294.793 60.5698 296.091 60.3157 297.334 60.2592C298.632 60.2028 299.847 60.6827 300.976 61.6992C301.428 62.7156 301.795 63.3085 302.077 63.4779C302.359 63.6473 302.613 63.732 302.839 63.732C303.065 63.732 303.319 63.8167 303.602 63.9861C303.884 64.1555 304.279 64.8049 304.787 65.9343C305.352 67.0637 305.211 68.1365 304.364 69.153C303.573 70.1694 302.331 71.0447 300.637 71.7787C298.943 72.5128 296.967 73.1058 294.708 73.5575C292.449 74.0092 290.19 74.3198 287.932 74.4892C282.85 74.8845 278.981 74.4892 276.327 73.3034C272.488 72.0046 270.003 69.4353 268.874 65.5955C267.406 60.5133 268.224 54.5842 271.33 47.808C272.742 44.6458 274.972 41.2577 278.022 37.6437C280.676 34.4815 283.64 32.1945 286.915 30.7828C290.699 29.1452 294.651 28.3829 298.774 28.4958C303.178 28.6088 306.227 30.5287 307.921 34.2556C308.768 36.232 308.938 38.9989 308.43 42.5564C307.526 47.1868 306.34 50.462 304.872 52.3819C303.404 54.2454 301.174 55.9394 298.181 57.4641ZM293.268 44.0811C290.275 43.4599 287.932 45.154 286.238 49.1632C285.729 50.2361 285.334 51.3655 285.052 52.5513C286.972 52.7772 289.005 51.7043 291.15 49.3326C291.941 48.3727 292.534 47.4127 292.929 46.4527C293.324 45.4363 293.437 44.6458 293.268 44.0811ZM332.521 61.7839C334.215 61.3321 336.05 61.2192 338.027 61.4451C340.003 61.6709 341.725 62.2356 343.193 63.1391C344.662 64.0426 345.65 65.2849 346.158 66.866C346.723 68.4471 346.384 70.3388 345.142 72.5411C344.52 72.5975 343.25 72.7952 341.33 73.134C339.466 73.4728 337.264 73.8398 334.723 74.2351C332.239 74.6304 329.585 74.9974 326.761 75.3362C323.994 75.6751 321.397 75.8727 318.969 75.9292C313.378 76.155 310.272 75.5057 309.651 73.981C307.449 69.0683 309.877 63.0544 316.936 55.9394C318.799 54.1324 320.521 52.4948 322.102 51.0267C323.684 49.502 324.954 48.2033 325.914 47.1304C326.931 46.0575 327.298 45.2669 327.015 44.7587C325.942 44.5328 325.293 44.3634 325.067 44.2505C324.672 43.9681 323.684 43.7423 322.102 43.5729C320.578 43.347 319.392 42.8105 318.545 41.9635C317.754 41.06 317.416 40.0436 317.529 38.9142C317.698 37.7284 318.263 36.5426 319.223 35.3567C320.239 34.1144 321.594 33.0415 323.288 32.138C324.982 31.2345 326.789 30.4722 328.709 29.8511C330.686 29.2299 332.69 28.7217 334.723 28.3264C338.111 27.5924 342.12 27.0841 346.751 26.8018C347.372 26.8018 347.796 27.0277 348.021 27.4794C348.304 27.8747 348.558 28.3264 348.784 28.8346C349.01 29.2864 349.292 29.7099 349.631 30.1052C350.026 30.444 350.788 30.5569 351.918 30.444C353.047 30.2746 353.838 30.7546 354.289 31.8839C354.798 32.9568 354.939 34.3121 354.713 35.9496C354.487 37.5872 353.951 39.2813 353.104 41.0318C352.257 42.7258 351.155 44.0811 349.8 45.0975C343.024 51.8737 338.789 56.0241 337.095 57.5488L332.521 61.7839ZM313.548 63.3932C313.604 63.3367 313.604 63.3367 313.548 63.3932C313.491 63.4497 313.406 63.5062 313.293 63.5626C313.35 63.5626 313.435 63.5062 313.548 63.3932ZM376.361 61.7839C378.055 61.3321 379.89 61.2192 381.867 61.4451C383.843 61.6709 385.565 62.2356 387.033 63.1391C388.502 64.0426 389.49 65.2849 389.998 66.866C390.563 68.4471 390.224 70.3388 388.982 72.5411C388.36 72.5975 387.09 72.7952 385.17 73.134C383.307 73.4728 381.104 73.8398 378.563 74.2351C376.079 74.6304 373.425 74.9974 370.601 75.3362C367.834 75.6751 365.237 75.8727 362.809 75.9292C357.218 76.155 354.112 75.5057 353.491 73.981C351.289 69.0683 353.717 63.0544 360.776 55.9394C362.639 54.1324 364.361 52.4948 365.943 51.0267C367.524 49.502 368.794 48.2033 369.754 47.1304C370.771 46.0575 371.138 45.2669 370.855 44.7587C369.782 44.5328 369.133 44.3634 368.907 44.2505C368.512 43.9681 367.524 43.7423 365.943 43.5729C364.418 43.347 363.232 42.8105 362.385 41.9635C361.595 41.06 361.256 40.0436 361.369 38.9142C361.538 37.7284 362.103 36.5426 363.063 35.3567C364.079 34.1144 365.434 33.0415 367.128 32.138C368.822 31.2345 370.629 30.4722 372.549 29.8511C374.526 29.2299 376.53 28.7217 378.563 28.3264C381.951 27.5924 385.961 27.0841 390.591 26.8018C391.212 26.8018 391.636 27.0277 391.862 27.4794C392.144 27.8747 392.398 28.3264 392.624 28.8346C392.85 29.2864 393.132 29.7099 393.471 30.1052C393.866 30.444 394.628 30.5569 395.758 30.444C396.887 30.2746 397.678 30.7546 398.129 31.8839C398.638 32.9568 398.779 34.3121 398.553 35.9496C398.327 37.5872 397.791 39.2813 396.944 41.0318C396.097 42.7258 394.995 44.0811 393.64 45.0975C386.864 51.8737 382.629 56.0241 380.935 57.5488L376.361 61.7839ZM357.388 63.3932C357.444 63.3367 357.444 63.3367 357.388 63.3932C357.331 63.4497 357.246 63.5062 357.134 63.5626C357.19 63.5626 357.275 63.5062 357.388 63.3932Z" fill="white"/>
</svg>
