<svg width="2546" height="1992" viewBox="0 0 2546 1992" fill="none" xmlns="http://www.w3.org/2000/svg">
<g clip-path="url(#clip0_25_2)">
<path fill-rule="evenodd" clip-rule="evenodd" d="M1311.46 1934.93C1993.28 1934.93 2546 1947.71 2546 1963.46C2546 1979.22 1993.28 1992 1311.46 1992C629.649 1992 76.9297 1979.22 76.9297 1963.46C76.9297 1947.71 629.649 1934.93 1311.46 1934.93Z" fill="#EBECEC"/>
<path fill-rule="evenodd" clip-rule="evenodd" d="M679.928 634.736C1029.4 634.736 1312.7 918.016 1312.7 1267.46C1312.7 1616.9 1029.4 1900.19 679.928 1900.19C330.456 1900.19 47.1528 1616.91 47.1528 1267.48C47.1528 918.04 330.456 634.736 679.928 634.736Z" fill="#EDF3F6"/>
<path fill-rule="evenodd" clip-rule="evenodd" d="M1517.43 136.001C1997.78 136.001 2387.18 525.376 2387.18 1005.68C2387.18 1485.99 1997.78 1875.38 1517.43 1875.38C1037.07 1875.38 647.667 1486 647.667 1005.68C647.667 525.369 1037.07 136.001 1517.43 136.001Z" fill="#D9E6EC"/>
<path d="M1306.84 947.358L757.5 1255.55V1887.97H1856.18V1255.55L1306.84 947.358Z" fill="#D79233"/>
<path d="M1739.3 1022.05H874.379C831.29 1022.05 796.359 1056.97 796.359 1100.06V1682.8C796.359 1725.88 831.29 1760.81 874.379 1760.81H1739.3C1782.39 1760.81 1817.32 1725.88 1817.32 1682.8V1100.06C1817.32 1056.97 1782.39 1022.05 1739.3 1022.05Z" fill="white"/>
<path d="M1719.31 1217.44H894.37C887.418 1217.44 881.783 1223.08 881.783 1230.03V1235.73C881.783 1242.68 887.418 1248.31 894.37 1248.31H1719.31C1726.26 1248.31 1731.89 1242.68 1731.89 1235.73V1230.03C1731.89 1223.08 1726.26 1217.44 1719.31 1217.44Z" fill="#C5C5C6"/>
<path d="M1719.31 1284.43H894.37C887.418 1284.43 881.783 1290.06 881.783 1297.01V1302.71C881.783 1309.67 887.418 1315.3 894.37 1315.3H1719.31C1726.26 1315.3 1731.89 1309.67 1731.89 1302.71V1297.01C1731.89 1290.06 1726.26 1284.43 1719.31 1284.43Z" fill="#C5C5C6"/>
<path d="M1719.31 1481.41H894.37C887.418 1481.41 881.783 1487.04 881.783 1493.99V1499.69C881.783 1506.64 887.418 1512.28 894.37 1512.28H1719.31C1726.26 1512.28 1731.89 1506.64 1731.89 1499.69V1493.99C1731.89 1487.04 1726.26 1481.41 1719.31 1481.41Z" fill="#C5C5C6"/>
<path d="M1245.29 1572.39L757.531 1255.55C743.919 1255.55 730.865 1260.95 721.24 1270.58C711.615 1280.2 706.208 1293.26 706.208 1306.87V1906.16L1242.43 1574.03C1243.36 1573.45 1244.34 1572.95 1245.29 1572.39Z" fill="#E8A83E"/>
<path d="M1907.47 1906.16V1306.87C1907.47 1293.26 1902.06 1280.2 1892.44 1270.58C1882.81 1260.95 1869.76 1255.55 1856.15 1255.55L1368.39 1572.39C1369.34 1572.95 1370.31 1573.45 1371.26 1574.03L1907.47 1906.16Z" fill="#E8A83E"/>
<path d="M1371.26 1574.03C1370.31 1573.45 1369.34 1572.95 1368.39 1572.39C1349.7 1561.5 1328.46 1555.77 1306.84 1555.77C1285.21 1555.77 1263.97 1561.5 1245.29 1572.39C1244.34 1572.95 1243.36 1573.45 1242.43 1574.03L706.208 1906.16V1917.87C706.208 1931.48 711.615 1944.53 721.24 1954.16C730.865 1963.78 743.919 1969.19 757.531 1969.19H1856.15C1869.76 1969.19 1882.81 1963.78 1892.44 1954.16C1902.06 1944.53 1907.47 1931.48 1907.47 1917.87V1906.16L1371.26 1574.03Z" fill="#D79233"/>
<path d="M608.197 228.852L596.886 522.971L1171.88 0L608.197 228.852Z" fill="#E8A83E"/>
<path d="M420.847 89.7107L608.197 228.852L1171.88 0L420.847 89.7107Z" fill="#F4B544"/>
<path d="M596.886 522.971L664.177 277.811L1058.05 105.832L596.886 522.971Z" fill="#D79233"/>
<path d="M664.177 277.812L852.865 413.96L1171.88 0L664.177 277.812Z" fill="#F4B544"/>
<path d="M668.099 1267.18C678.574 1272.21 689.265 1276.75 700.174 1280.79L697.853 1286.98C686.759 1282.88 675.879 1278.26 665.213 1273.12L668.099 1267.18Z" fill="#A29E3A"/>
<path d="M622.687 1241.36C632.311 1247.87 642.399 1253.68 652.549 1259.31L649.416 1265.15C639.08 1259.41 628.821 1253.54 619.027 1246.88L622.687 1241.36Z" fill="#A29E3A"/>
<path d="M581.205 1209.6C589.9 1217.33 598.957 1224.61 608.375 1231.42L604.507 1236.77C594.955 1229.79 585.741 1222.39 576.865 1214.56L581.205 1209.6Z" fill="#A29E3A"/>
<path d="M544.48 1172.45C552.139 1181.18 559.953 1189.76 568.409 1197.77L563.767 1202.53C555.195 1194.38 547.211 1185.65 539.421 1176.76L544.48 1172.45Z" fill="#A29E3A"/>
<path d="M513.551 1130.42C519.692 1140.27 526.344 1149.79 533.48 1158.94L528.25 1163.01C520.972 1153.67 514.188 1143.96 507.927 1133.91L513.551 1130.42Z" fill="#A29E3A"/>
<path d="M490.172 1083.92C494.367 1094.72 499.253 1105.23 504.801 1115.4L498.984 1118.56C493.299 1108.15 488.291 1097.37 483.991 1086.31L490.172 1083.92Z" fill="#A29E3A"/>
<path d="M477.02 1033.77C478.602 1045.21 481.104 1056.5 484.501 1067.54L478.165 1069.44C474.655 1058.07 472.068 1046.42 470.429 1034.63L477.02 1033.77Z" fill="#A29E3A"/>
<path d="M477.059 982.099C475.472 993.513 474.939 1005.05 475.465 1016.56L468.851 1016.86C468.304 1004.95 468.856 993.003 470.498 981.186L477.059 982.099Z" fill="#A29E3A"/>
<path d="M491.619 932.676C486.716 943.083 482.908 953.972 480.254 965.165L473.81 963.618C476.571 951.983 480.536 940.667 485.638 929.852L491.619 932.676Z" fill="#A29E3A"/>
<path d="M521.334 890.942C513.083 898.886 505.865 907.837 499.85 917.583L494.226 914.087C500.537 903.87 508.105 894.486 516.754 886.153L521.334 890.942Z" fill="#A29E3A"/>
<path d="M564.386 863.341C553.746 867.578 543.688 873.151 534.455 879.926L530.54 874.588C540.226 867.478 550.778 861.629 561.942 857.183L564.386 863.341Z" fill="#A29E3A"/>
<path d="M614.587 854.468C603.17 854.027 591.749 855.239 580.679 858.065L579.07 851.637C590.757 848.659 602.814 847.385 614.866 847.854L614.587 854.468Z" fill="#A29E3A"/>
<path d="M663.31 868.555C653.389 862.935 642.658 858.882 631.499 856.541L632.829 850.059C644.655 852.536 656.028 856.826 666.544 862.776L663.31 868.555Z" fill="#A29E3A"/>
<path d="M702.695 901.439C695.251 892.693 686.863 884.796 677.684 877.892L681.637 872.585C691.212 879.78 699.96 888.012 707.724 897.13L702.695 901.439Z" fill="#A29E3A"/>
<path d="M730.028 945.138C725.472 934.574 719.852 924.502 713.256 915.077L718.671 911.279C725.521 921.075 731.358 931.541 736.093 942.515L730.028 945.138Z" fill="#A29E3A"/>
<path d="M742.104 994.994C741.475 983.547 739.422 972.222 735.993 961.282L742.329 959.333C745.908 970.79 748.055 982.646 748.719 994.631L742.104 994.994Z" fill="#A29E3A"/>
<path d="M734.159 1045.28C738.167 1034.62 741.068 1023.5 741.895 1012.11L748.495 1012.65C747.62 1024.66 744.564 1036.47 740.325 1047.69L734.159 1045.28Z" fill="#A29E3A"/>
<path d="M706.448 1088.25C714.315 1079.92 721.158 1070.69 726.833 1060.74L732.612 1063.97C726.669 1074.41 719.495 1084.09 711.244 1092.81L706.448 1088.25Z" fill="#A29E3A"/>
<path d="M665.268 1119.02C675.51 1113.78 685.115 1107.39 693.892 1099.95L698.147 1105.03C689.013 1112.77 679.022 1119.43 668.37 1124.89L665.268 1119.02Z" fill="#A29E3A"/>
<path d="M616.475 1135.24C627.801 1133.36 638.911 1130.35 649.64 1126.26L652.062 1132.45C640.878 1136.72 629.292 1139.86 617.48 1141.82L616.475 1135.24Z" fill="#A29E3A"/>
<path d="M564.811 1135.63C576.234 1137.17 587.778 1137.61 599.284 1136.95L599.648 1143.56C587.739 1144.24 575.791 1143.79 563.968 1142.2L564.811 1135.63Z" fill="#A29E3A"/>
<path d="M514.603 1122.82C525.394 1126.96 536.487 1130.26 547.784 1132.7L546.392 1139.17C534.767 1136.67 523.354 1133.27 512.251 1129.01L514.603 1122.82Z" fill="#A29E3A"/>
<path d="M468.108 1099.51C477.9 1105.69 488.078 1111.24 498.581 1116.11L495.804 1122.12C485.04 1117.12 474.606 1111.43 464.564 1105.1L468.108 1099.51Z" fill="#A29E3A"/>
<path d="M426.866 1067.77C435.399 1075.61 444.378 1082.96 453.757 1089.76L449.889 1095.13C440.297 1088.17 431.112 1080.65 422.379 1072.64L426.866 1067.77Z" fill="#A29E3A"/>
<path d="M391.921 1029.16C399.046 1038.28 406.341 1047.32 414.496 1055.56L409.722 1060.15C401.383 1051.72 393.917 1042.48 386.629 1033.14L391.921 1029.16Z" fill="#A29E3A"/>
<path d="M364.689 984.814C369.809 995.203 375.579 1005.26 381.964 1014.92L376.433 1018.57C369.896 1008.67 363.986 998.366 358.74 987.723L364.689 984.814Z" fill="#A29E3A"/>
<path d="M346.725 936.056C349.598 947.263 353.232 958.26 357.603 968.972L351.475 971.478C346.984 960.481 343.251 949.188 340.304 937.681L346.725 936.056Z" fill="#A29E3A"/>
<path d="M339.685 884.645L339.995 893.309L340.768 901.942C341.17 907.713 342.215 913.406 343.089 919.115L336.567 920.26C335.678 914.389 334.61 908.533 334.192 902.599L333.419 893.726L333.094 884.823L339.685 884.645Z" fill="#A29E3A"/>
<path d="M343.553 832.8C341.557 844.208 340.299 855.732 339.786 867.301L333.171 867.023C333.7 855.171 334.992 843.365 337.04 831.679L343.553 832.8Z" fill="#A29E3A"/>
<path d="M356.752 782.387C353.054 793.379 349.541 804.457 347.012 815.774L340.567 814.266C343.151 802.662 346.756 791.391 350.509 780.182L356.752 782.387Z" fill="#A29E3A"/>
<path d="M377.748 734.565C372.248 744.807 367.49 755.451 363.003 766.134L356.875 763.62C361.448 752.72 366.291 741.914 371.876 731.501L377.748 734.565Z" fill="#A29E3A"/>
<path d="M404.856 689.853C398.213 699.409 391.975 709.207 386.142 719.248L380.409 715.93C386.33 705.703 392.666 695.742 399.417 686.047L404.856 689.853Z" fill="#A29E3A"/>
<path d="M436.838 648.343C429.365 657.285 421.976 666.305 415.076 675.689L409.769 671.736C416.731 662.229 424.228 653.1 431.786 644.065L436.838 648.343Z" fill="#A29E3A"/>
<path d="M472.247 609.587C464.054 617.911 456.132 626.482 448.311 635.115L443.375 630.705C451.266 621.964 459.258 613.316 467.504 604.938L472.247 609.587Z" fill="#A29E3A"/>
<path d="M509.884 572.866C501.348 580.859 492.918 588.956 484.594 597.156L479.952 592.445C488.307 584.193 496.784 576.055 505.381 568.031L509.884 572.866Z" fill="#A29E3A"/>
<path d="M548.79 537.359L522.765 560.945L518.286 556.064L544.372 532.432L548.79 537.359Z" fill="#A29E3A"/>
<path fill-rule="evenodd" clip-rule="evenodd" d="M2052.18 1632.21C2061.02 1632.21 2069.66 1634.83 2077 1639.74C2084.35 1644.65 2090.07 1651.63 2093.45 1659.79C2096.84 1667.95 2097.72 1676.93 2095.99 1685.6C2094.27 1694.26 2090.02 1702.22 2083.77 1708.47C2077.52 1714.71 2069.56 1718.97 2060.89 1720.69C2052.23 1722.41 2043.25 1721.52 2035.08 1718.14C2026.92 1714.76 2019.95 1709.03 2015.04 1701.69C2010.13 1694.34 2007.51 1685.71 2007.52 1676.87C2007.52 1665.03 2012.22 1653.67 2020.6 1645.29C2028.98 1636.92 2040.34 1632.21 2052.18 1632.21Z" fill="#C5C5C6"/>
<path fill-rule="evenodd" clip-rule="evenodd" d="M111.666 1676.87C120.5 1676.87 129.136 1679.49 136.482 1684.39C143.829 1689.3 149.555 1696.27 152.938 1704.43C156.321 1712.59 157.208 1721.57 155.487 1730.24C153.766 1738.9 149.515 1746.86 143.27 1753.11C137.026 1759.36 129.069 1763.61 120.405 1765.34C111.741 1767.07 102.76 1766.19 94.5969 1762.81C86.4338 1759.43 79.4553 1753.71 74.5439 1746.37C69.6324 1739.03 67.0085 1730.39 67.0039 1721.56C67.0009 1715.69 68.1538 1709.88 70.3968 1704.46C72.6398 1699.04 75.9289 1694.11 80.0763 1689.96C84.2237 1685.81 89.1481 1682.52 94.5683 1680.28C99.9885 1678.03 105.798 1676.87 111.666 1676.87Z" fill="#C5C5C6"/>
<path fill-rule="evenodd" clip-rule="evenodd" d="M2309.01 1064.03C2426.2 1064.03 2521.18 1159.01 2521.18 1276.18C2521.18 1393.34 2426.16 1488.3 2309.01 1488.3C2191.86 1488.3 2096.85 1393.31 2096.85 1276.15C2096.85 1158.98 2191.84 1064.03 2309.01 1064.03Z" fill="#C5C5C6"/>
<path fill-rule="evenodd" clip-rule="evenodd" d="M1962.85 46.677C1971.69 46.677 1980.33 49.2968 1987.67 54.2051C1995.02 59.1134 2000.74 66.0897 2004.12 74.2518C2007.5 82.4138 2008.39 91.395 2006.66 100.06C2004.94 108.724 2000.68 116.683 1994.44 122.929C1988.19 129.175 1980.23 133.429 1971.56 135.151C1962.9 136.874 1953.92 135.988 1945.75 132.606C1937.59 129.225 1930.62 123.498 1925.71 116.152C1920.8 108.806 1918.18 100.17 1918.18 91.3351C1918.18 85.4699 1919.34 79.6621 1921.58 74.2434C1923.83 68.8247 1927.12 63.9013 1931.27 59.7543C1935.42 55.6073 1940.34 52.318 1945.76 50.0742C1951.18 47.8304 1956.99 46.676 1962.85 46.677Z" fill="#C5C5C6"/>
<path fill-rule="evenodd" clip-rule="evenodd" d="M1642.74 726.543C1654.52 726.543 1666.04 730.036 1675.84 736.581C1685.63 743.126 1693.27 752.429 1697.78 763.313C1702.28 774.197 1703.46 786.174 1701.17 797.728C1698.87 809.283 1693.19 819.896 1684.86 828.226C1676.53 836.557 1665.92 842.23 1654.36 844.528C1642.81 846.826 1630.83 845.647 1619.94 841.138C1609.06 836.63 1599.76 828.996 1593.21 819.2C1586.67 809.405 1583.17 797.889 1583.17 786.108C1583.17 770.31 1589.45 755.16 1600.62 743.989C1611.79 732.819 1626.94 726.543 1642.74 726.543Z" fill="#C0AC7A"/>
<path fill-rule="evenodd" clip-rule="evenodd" d="M1285.97 331.907C1294.08 331.907 1302 334.312 1308.75 338.817C1315.49 343.322 1320.74 349.725 1323.85 357.217C1326.95 364.708 1327.76 372.952 1326.18 380.905C1324.6 388.858 1320.69 396.163 1314.96 401.897C1309.23 407.631 1301.92 411.536 1293.97 413.118C1286.01 414.7 1277.77 413.888 1270.28 410.785C1262.78 407.681 1256.38 402.427 1251.87 395.684C1247.37 388.942 1244.96 381.015 1244.96 372.906C1244.96 362.033 1249.28 351.604 1256.97 343.916C1264.66 336.227 1275.09 331.907 1285.97 331.907Z" fill="#A29E3A"/>
<path fill-rule="evenodd" clip-rule="evenodd" d="M132.763 520.596C159.021 520.596 184.689 528.382 206.522 542.969C228.354 557.556 245.371 578.289 255.419 602.546C265.468 626.803 268.097 653.495 262.974 679.247C257.852 704.998 245.207 728.652 226.64 747.218C208.073 765.784 184.417 778.427 158.663 783.549C132.91 788.672 106.216 786.043 81.9565 775.995C57.6973 765.947 36.9627 748.932 22.3745 727.101C7.78637 705.27 2.25452e-07 679.604 2.25452e-07 653.348C-0.00101583 635.914 3.43228 618.651 10.1039 602.545C16.7754 586.438 26.5546 571.803 38.883 559.476C51.2113 547.148 65.8474 537.37 81.9553 530.699C98.0633 524.028 115.328 520.595 132.763 520.596Z" fill="#C0AC7A"/>
<path d="M2292.16 463.739C2188.61 373.038 2031.83 374.276 1929.56 466.454C1835.95 550.773 1813.79 682.929 1862.86 790.014C1872.18 810.375 1873.63 833.512 1865.89 854.538L1826.27 962.311L1933.03 922.333C1953.14 914.791 1975.58 915.216 1995.04 924.468C2046.25 948.843 2103.78 956.673 2159.64 946.869C2215.5 937.066 2266.92 910.116 2306.76 869.761C2418.82 756.728 2413.94 570.406 2292.16 463.739Z" fill="#3D3028"/>
<path fill-rule="evenodd" clip-rule="evenodd" d="M1977.95 735.362C1968.89 744.529 1963.81 756.897 1963.81 769.785C1963.81 782.673 1968.89 795.042 1977.95 804.209C1982.42 808.72 1987.73 812.301 1993.58 814.745C1999.44 817.188 2005.72 818.447 2012.06 818.447C2018.4 818.447 2024.68 817.188 2030.54 814.745C2036.39 812.301 2041.7 808.72 2046.17 804.209L2049.44 800.898L1981.23 732.051L1977.95 735.362Z" fill="white"/>
<path fill-rule="evenodd" clip-rule="evenodd" d="M2058.87 561.077L1985.63 634.968C1975.37 645.34 1961.71 651.658 1947.16 652.76C1938.75 653.394 1934.96 663.69 1940.92 669.709L2026.07 755.621L2111.22 841.534C2112.55 842.878 2114.25 843.809 2116.1 844.214C2117.95 844.619 2119.88 844.481 2121.65 843.817C2123.43 843.153 2124.97 841.991 2126.1 840.47C2127.23 838.949 2127.9 837.135 2128.02 835.245C2129.09 820.618 2135.35 806.854 2145.66 796.427L2218.9 722.536C2263.09 677.947 2263.09 605.657 2218.9 561.069C2208.44 550.477 2195.98 542.067 2182.25 536.327C2168.51 530.587 2153.77 527.632 2138.88 527.633C2124 527.634 2109.26 530.59 2095.52 536.331C2081.79 542.072 2069.33 550.483 2058.87 561.077Z" fill="white"/>
<path fill-rule="evenodd" clip-rule="evenodd" d="M2249.87 562.91C2254.22 558.504 2256.66 552.56 2256.66 546.367C2256.66 540.174 2254.22 534.23 2249.87 529.825C2247.73 527.655 2245.17 525.931 2242.36 524.756C2239.55 523.58 2236.53 522.974 2233.48 522.974C2230.43 522.974 2227.41 523.58 2224.59 524.756C2221.78 525.931 2219.23 527.655 2217.08 529.825L2210.25 536.709L2243.05 569.795L2249.87 562.91Z" fill="white"/>
<path d="M341.751 1362.03C292.169 1418.63 292.842 1504.31 343.228 1560.21C389.337 1611.36 461.594 1623.49 520.103 1596.67C531.178 1591.48 543.859 1590.88 555.373 1595L614.285 1616.66L592.438 1558.34C590.35 1552.9 589.377 1547.1 589.577 1541.27C589.776 1535.45 591.143 1529.73 593.598 1524.45C606.917 1496.46 611.194 1465.02 605.837 1434.49C600.479 1403.96 585.751 1375.86 563.697 1354.08C501.908 1292.81 400.028 1295.47 341.751 1362.03Z" fill="#3D3028"/>
<path d="M490.064 1406.35L476.301 1493.29C476.06 1494.56 475.915 1495.86 475.868 1497.16C475.831 1497.72 475.909 1498.28 476.098 1498.82C476.287 1499.35 476.582 1499.84 476.966 1500.25C477.412 1500.64 477.934 1500.94 478.498 1501.13C479.063 1501.32 479.66 1501.4 480.254 1501.35C483.617 1501.35 487.42 1499.85 491.665 1496.84C497.952 1492.45 503.128 1486.09 507.192 1477.77C511.256 1469.45 513.285 1459.4 513.28 1447.6C513.28 1428.26 507.728 1412.98 496.624 1401.76C485.52 1390.54 470.62 1384.93 451.924 1384.93C438.708 1384.79 425.697 1388.21 414.263 1394.84C402.917 1401.44 394.193 1411 388.092 1423.54C381.99 1436.07 378.932 1449.92 378.916 1465.1C378.916 1488.7 385.572 1507.42 398.884 1521.24C412.195 1535.06 429.383 1541.97 450.446 1541.96C460.557 1541.99 470.594 1540.24 480.099 1536.79C489.972 1533.13 499.202 1527.93 507.447 1521.38H529.998C523.98 1528.5 518.257 1534.08 512.832 1538.11C504.326 1544.32 494.939 1549.21 484.981 1552.64C474.014 1556.45 462.474 1558.34 450.864 1558.24C433.921 1558.24 418.707 1554.32 405.22 1546.48C391.733 1538.63 381.188 1527.45 373.586 1512.94C365.989 1498.42 362.19 1482.44 362.19 1464.98C362.19 1446.64 366.133 1429.98 374.019 1414.99C381.905 1400 392.38 1388.49 405.444 1380.48C418.498 1372.49 433.97 1368.5 451.862 1368.5C474.973 1368.5 493.772 1375.83 508.259 1390.49C522.747 1405.15 529.991 1424.1 529.991 1447.34C529.991 1461.12 527.154 1473.72 521.481 1485.16C515.988 1496.42 507.349 1505.86 496.609 1512.32C488.166 1517.48 480.244 1520.04 472.843 1520.02C468.438 1520.02 464.828 1518.98 462.012 1516.92C459.196 1514.86 457.133 1511.59 455.823 1507.13C450.913 1511.9 446.436 1515.25 442.393 1517.18C438.308 1519.14 433.831 1520.14 429.303 1520.1C419.54 1520.1 411.138 1516.03 404.098 1507.89C397.058 1499.76 393.538 1488.1 393.538 1472.94C393.538 1454.98 398.048 1438.73 407.069 1424.2C416.089 1409.67 427.278 1402.41 440.636 1402.43C445.488 1402.34 450.269 1403.6 454.446 1406.07C458.448 1408.49 462.466 1412.71 466.499 1418.72L468.479 1406.29L490.064 1406.35ZM416.77 1478.35C416.77 1487.07 418.64 1493.85 422.379 1498.68C423.592 1500.37 425.196 1501.75 427.054 1502.69C428.913 1503.64 430.971 1504.12 433.055 1504.09C437.753 1504.09 442.008 1502.1 445.82 1498.11C449.631 1494.12 452.984 1486.15 455.877 1474.2C458.739 1462.26 460.168 1451.53 460.163 1442C460.163 1434.82 458.616 1429.41 455.521 1425.76C452.427 1422.1 448.757 1420.27 444.512 1420.26C442.122 1420.25 439.757 1420.74 437.562 1421.69C435.367 1422.63 433.388 1424.02 431.747 1425.76C426.832 1430.66 423.111 1438.44 420.584 1449.11C418.188 1458.68 416.908 1468.49 416.77 1478.35Z" fill="white"/>
<path d="M1239.96 1174.48C1231.31 1174.48 1223.73 1172.59 1217.21 1168.8C1210.78 1165 1205.71 1159.77 1202 1153.09C1198.38 1146.33 1196.56 1138.54 1196.56 1129.72C1196.56 1120.9 1198.38 1113.15 1202 1106.48C1205.71 1099.72 1210.78 1094.44 1217.21 1090.65C1223.73 1086.86 1231.31 1084.96 1239.96 1084.96C1248.54 1084.96 1256.08 1086.86 1262.59 1090.65C1269.1 1094.44 1274.17 1099.72 1277.8 1106.48C1281.43 1113.15 1283.24 1120.9 1283.24 1129.72C1283.24 1138.54 1281.43 1146.33 1277.8 1153.09C1274.17 1159.77 1269.1 1165 1262.59 1168.8C1256.08 1172.59 1248.54 1174.48 1239.96 1174.48ZM1239.96 1160.26C1248.21 1160.26 1254.76 1157.54 1259.62 1152.1C1264.57 1146.66 1267.04 1139.2 1267.04 1129.72C1267.04 1120.24 1264.57 1112.78 1259.62 1107.34C1254.76 1101.9 1248.21 1099.18 1239.96 1099.18C1231.72 1099.18 1225.13 1101.9 1220.18 1107.34C1215.23 1112.78 1212.76 1120.24 1212.76 1129.72C1212.76 1139.2 1215.23 1146.66 1220.18 1152.1C1225.13 1157.54 1231.72 1160.26 1239.96 1160.26ZM1314.23 1173V1099.18H1289.01V1086.45H1355.4V1099.18H1330.06V1173H1314.23ZM1367.13 1173V1086.45H1399.15C1406.08 1086.45 1411.81 1087.6 1416.34 1089.91C1420.87 1092.22 1424.25 1095.39 1426.48 1099.43C1428.71 1103.47 1429.82 1108 1429.82 1113.03C1429.82 1117.81 1428.75 1122.22 1426.6 1126.26C1424.46 1130.22 1421.12 1133.43 1416.59 1135.91C1412.05 1138.3 1406.24 1139.49 1399.15 1139.49H1382.96V1173H1367.13ZM1382.96 1126.63H1398.16C1403.69 1126.63 1407.64 1125.44 1410.03 1123.05C1412.51 1120.57 1413.74 1117.24 1413.74 1113.03C1413.74 1108.74 1412.51 1105.41 1410.03 1103.02C1407.64 1100.54 1403.69 1099.31 1398.16 1099.31H1382.96V1126.63Z" fill="#3D3028"/>
<path d="M1194.93 1419.17L1197.56 1399.66L1182.05 1411.84L1175.41 1400.08L1193.54 1392.88L1175.55 1385.96L1181.78 1374.75L1197.69 1386.79L1194.93 1367H1207.8L1205.03 1386.79L1220.81 1374.75L1226.9 1385.82L1208.91 1393.02L1227.04 1400.21L1220.53 1411.7L1205.03 1399.66L1207.66 1419.17H1194.93ZM1264.94 1419.17L1267.57 1399.66L1252.07 1411.84L1245.42 1400.08L1263.56 1392.88L1245.56 1385.96L1251.79 1374.75L1267.71 1386.79L1264.94 1367H1277.81L1275.04 1386.79L1290.82 1374.75L1296.91 1385.82L1278.92 1393.02L1297.05 1400.21L1290.54 1411.7L1275.04 1399.66L1277.67 1419.17H1264.94ZM1334.95 1419.17L1337.58 1399.66L1322.08 1411.84L1315.44 1400.08L1333.57 1392.88L1315.58 1385.96L1321.8 1374.75L1337.72 1386.79L1334.95 1367H1347.82L1345.06 1386.79L1360.83 1374.75L1366.92 1385.82L1348.93 1393.02L1367.06 1400.21L1360.56 1411.7L1345.06 1399.66L1347.68 1419.17H1334.95ZM1404.96 1419.17L1407.59 1399.66L1392.09 1411.84L1385.45 1400.08L1403.58 1392.88L1385.59 1385.96L1391.82 1374.75L1407.73 1386.79L1404.96 1367H1417.84L1415.07 1386.79L1430.85 1374.75L1436.94 1385.82L1418.94 1393.02L1437.07 1400.21L1430.57 1411.7L1415.07 1399.66L1417.7 1419.17H1404.96Z" fill="#867D78"/>
</g>
<defs>
<clipPath id="clip0_25_2">
<rect width="2546" height="1992" fill="white"/>
</clipPath>
</defs>
</svg>
